STARTFONT 2.1
FONT -Cronyx-Helvetica-Medium-R-Normal--14-140-75-75-P-77-KOI8-C
SIZE 14 72 72
FONTBOUNDINGBOX 12 17 0 -3
STARTPROPERTIES 23
DEFAULT_CHAR 32
FONT_ASCENT 15
FONT_DESCENT 3
SPACING "P"
FONTNAME_REGISTRY ""
FOUNDRY "Cronyx"
FAMILY_NAME "Helvetica"
WEIGHT_NAME "Medium"
SLANT "R"
SETWIDTH_NAME "Normal"
ADD_STYLE_NAME ""
AVERAGE_WIDTH 77
CHARSET_REGISTRY "KOI8"
CHARSET_ENCODING "C"
PIXEL_SIZE 14
POINT_SIZE 140
RESOLUTION_X 75
RESOLUTION_Y 75
COPYRIGHT "Copyright (C) 1990, 1991 EWT Consulting, Portions Copyright (C) 1996-1997 by Andrey A. Chernov, Moscow, Russia."
_XMBDFED_INFO "Edited with xmbdfed 3.8."
_XFREE86_GLYPH_RANGES "3_10 26_27 30_255"
X_HEIGHT 8
CAP_HEIGHT 11
ENDPROPERTIES
CHARS 236
STARTCHAR multi
ENCODING 3
SWIDTH 500 0
DWIDTH 7 0
BBX 5 5 1 1
BITMAP
88
50
20
50
88
ENDCHAR
STARTCHAR divide
ENCODING 4
SWIDTH 500 0
DWIDTH 7 0
BBX 5 7 1 0
BITMAP
20
20
00
F8
00
20
20
ENDCHAR
STARTCHAR promille
ENCODING 5
SWIDTH 857 0
DWIDTH 12 0
BBX 11 11 1 0
BITMAP
6200
9200
9400
9400
6800
0800
16C0
1920
2920
2920
46C0
ENDCHAR
STARTCHAR approx
ENCODING 6
SWIDTH 500 0
DWIDTH 7 0
BBX 5 5 1 1
BITMAP
68
90
00
68
90
ENDCHAR
STARTCHAR degree
ENCODING 7
SWIDTH 500 0
DWIDTH 7 0
BBX 5 11 1 -3
BITMAP
88
88
88
88
88
88
98
E8
80
80
80
ENDCHAR
STARTCHAR plusminus
ENCODING 8
SWIDTH 500 0
DWIDTH 7 0
BBX 6 6 1 0
BITMAP
20
20
F8
20
20
F8
ENDCHAR
STARTCHAR pilcrow
ENCODING 9
SWIDTH 500 0
DWIDTH 7 0
BBX 6 11 1 0
BITMAP
7C
F4
F4
F4
F4
74
14
14
14
14
14
ENDCHAR
STARTCHAR ddagger
ENCODING 10
SWIDTH 500 0
DWIDTH 7 0
BBX 5 11 1 0
BITMAP
20
20
20
F8
20
20
20
F8
20
20
20
ENDCHAR
STARTCHAR lessequal
ENCODING 26
SWIDTH 500 0
DWIDTH 7 0
BBX 5 8 1 0
BITMAP
18
20
40
80
40
20
18
F8
ENDCHAR
STARTCHAR greaterequal
ENCODING 27
SWIDTH 500 0
DWIDTH 7 0
BBX 5 8 1 0
BITMAP
C0
20
10
08
10
20
C0
F8
ENDCHAR
STARTCHAR currency
ENCODING 30
SWIDTH 500 0
DWIDTH 7 0
BBX 5 8 1 0
BITMAP
88
88
70
88
88
70
88
88
ENDCHAR
STARTCHAR twosuperior
ENCODING 31
SWIDTH 285 0
DWIDTH 4 0
BBX 3 6 1 5
BITMAP
40
A0
20
40
80
E0
ENDCHAR
STARTCHAR space
ENCODING 32
SWIDTH 214 0
DWIDTH 3 0
BBX 0 0 0 0
BITMAP
ENDCHAR
STARTCHAR exclam
ENCODING 33
SWIDTH 214 0
DWIDTH 3 0
BBX 1 11 1 0
BITMAP
80
80
80
80
80
80
80
80
00
80
80
ENDCHAR
STARTCHAR quotedbl
ENCODING 34
SWIDTH 357 0
DWIDTH 5 0
BBX 3 4 1 7
BITMAP
A0
A0
A0
A0
ENDCHAR
STARTCHAR numbersign
ENCODING 35
SWIDTH 642 0
DWIDTH 9 0
BBX 9 11 0 0
BITMAP
0900
0900
1200
7F80
1200
2400
FF00
2400
2400
4800
4800
ENDCHAR
STARTCHAR dollar
ENCODING 36
SWIDTH 428 0
DWIDTH 6 0
BBX 5 12 1 -1
BITMAP
20
70
A8
A8
A0
60
30
28
A8
A8
70
20
ENDCHAR
STARTCHAR percent
ENCODING 37
SWIDTH 714 0
DWIDTH 10 0
BBX 9 11 1 0
BITMAP
6200
9200
9400
9400
6800
0800
0B00
1480
1480
2480
2300
ENDCHAR
STARTCHAR ampersand
ENCODING 38
SWIDTH 642 0
DWIDTH 9 0
BBX 7 11 1 0
BITMAP
30
48
48
48
30
20
52
8A
86
84
7A
ENDCHAR
STARTCHAR quotesingle
ENCODING 39
SWIDTH 214 0
DWIDTH 3 0
BBX 1 4 1 7
BITMAP
80
80
80
80
ENDCHAR
STARTCHAR parenleft
ENCODING 40
SWIDTH 285 0
DWIDTH 4 0
BBX 3 14 1 -3
BITMAP
20
40
40
80
80
80
80
80
80
80
80
40
40
20
ENDCHAR
STARTCHAR parenright
ENCODING 41
SWIDTH 285 0
DWIDTH 4 0
BBX 3 14 0 -3
BITMAP
80
40
40
20
20
20
20
20
20
20
20
40
40
80
ENDCHAR
STARTCHAR asterisk
ENCODING 42
SWIDTH 500 0
DWIDTH 7 0
BBX 5 6 1 5
BITMAP
20
20
F8
20
50
50
ENDCHAR
STARTCHAR plus
ENCODING 43
SWIDTH 500 0
DWIDTH 7 0
BBX 5 7 1 0
BITMAP
20
20
20
F8
20
20
20
ENDCHAR
STARTCHAR comma
ENCODING 44
SWIDTH 214 0
DWIDTH 3 0
BBX 2 3 0 -1
BITMAP
40
40
80
ENDCHAR
STARTCHAR hyphen
ENCODING 45
SWIDTH 357 0
DWIDTH 5 0
BBX 4 2 1 3
BITMAP
F0
10
ENDCHAR
STARTCHAR period
ENCODING 46
SWIDTH 214 0
DWIDTH 3 0
BBX 1 2 1 0
BITMAP
80
80
ENDCHAR
STARTCHAR slash
ENCODING 47
SWIDTH 285 0
DWIDTH 4 0
BBX 4 12 0 -1
BITMAP
10
10
10
20
20
20
40
40
40
80
80
80
ENDCHAR
STARTCHAR zero
ENCODING 48
SWIDTH 428 0
DWIDTH 6 0
BBX 5 11 1 0
BITMAP
70
88
88
88
88
88
88
88
88
88
70
ENDCHAR
STARTCHAR one
ENCODING 49
SWIDTH 428 0
DWIDTH 6 0
BBX 3 11 1 0
BITMAP
20
20
E0
20
20
20
20
20
20
20
20
ENDCHAR
STARTCHAR two
ENCODING 50
SWIDTH 428 0
DWIDTH 6 0
BBX 5 11 1 0
BITMAP
70
88
88
88
08
10
20
40
80
80
F8
ENDCHAR
STARTCHAR three
ENCODING 51
SWIDTH 428 0
DWIDTH 6 0
BBX 5 11 1 0
BITMAP
70
88
88
08
08
30
08
08
88
88
70
ENDCHAR
STARTCHAR four
ENCODING 52
SWIDTH 428 0
DWIDTH 6 0
BBX 6 11 0 0
BITMAP
08
18
28
28
48
48
88
FC
08
08
08
ENDCHAR
STARTCHAR five
ENCODING 53
SWIDTH 428 0
DWIDTH 6 0
BBX 5 11 1 0
BITMAP
F8
80
80
80
F0
88
08
08
88
88
70
ENDCHAR
STARTCHAR six
ENCODING 54
SWIDTH 428 0
DWIDTH 6 0
BBX 5 11 1 0
BITMAP
70
88
88
80
B0
C8
88
88
88
88
70
ENDCHAR
STARTCHAR seven
ENCODING 55
SWIDTH 428 0
DWIDTH 6 0
BBX 5 11 1 0
BITMAP
F8
08
10
10
10
20
20
20
40
40
40
ENDCHAR
STARTCHAR eight
ENCODING 56
SWIDTH 428 0
DWIDTH 6 0
BBX 5 11 1 0
BITMAP
70
88
88
88
88
70
88
88
88
88
70
ENDCHAR
STARTCHAR nine
ENCODING 57
SWIDTH 428 0
DWIDTH 6 0
BBX 5 11 1 0
BITMAP
70
88
88
88
88
98
68
08
88
88
70
ENDCHAR
STARTCHAR colon
ENCODING 58
SWIDTH 214 0
DWIDTH 3 0
BBX 1 8 1 0
BITMAP
80
80
00
00
00
00
80
80
ENDCHAR
STARTCHAR semicolon
ENCODING 59
SWIDTH 214 0
DWIDTH 3 0
BBX 2 9 0 -1
BITMAP
40
40
00
00
00
00
40
40
80
ENDCHAR
STARTCHAR less
ENCODING 60
SWIDTH 500 0
DWIDTH 7 0
BBX 5 7 1 0
BITMAP
18
20
40
80
40
20
18
ENDCHAR
STARTCHAR equal
ENCODING 61
SWIDTH 500 0
DWIDTH 7 0
BBX 5 4 1 1
BITMAP
F8
00
00
F8
ENDCHAR
STARTCHAR greater
ENCODING 62
SWIDTH 500 0
DWIDTH 7 0
BBX 5 7 1 0
BITMAP
C0
20
10
08
10
20
C0
ENDCHAR
STARTCHAR question
ENCODING 63
SWIDTH 500 0
DWIDTH 7 0
BBX 5 11 1 0
BITMAP
70
88
88
08
10
20
20
20
00
20
20
ENDCHAR
STARTCHAR at
ENCODING 64
SWIDTH 857 0
DWIDTH 12 0
BBX 11 12 1 -2
BITMAP
0F00
3080
4040
4620
8920
9120
9120
9240
4D80
4000
3080
0F00
ENDCHAR
STARTCHAR A
ENCODING 65
SWIDTH 500 0
DWIDTH 7 0
BBX 7 11 0 0
BITMAP
10
10
28
28
44
44
7C
44
82
82
82
ENDCHAR
STARTCHAR B
ENCODING 66
SWIDTH 571 0
DWIDTH 8 0
BBX 6 11 1 0
BITMAP
F8
84
84
84
84
F8
84
84
84
84
F8
ENDCHAR
STARTCHAR C
ENCODING 67
SWIDTH 642 0
DWIDTH 9 0
BBX 7 11 1 0
BITMAP
38
44
82
82
80
80
80
82
82
44
38
ENDCHAR
STARTCHAR D
ENCODING 68
SWIDTH 642 0
DWIDTH 9 0
BBX 7 11 1 0
BITMAP
F8
84
82
82
82
82
82
82
82
84
F8
ENDCHAR
STARTCHAR E
ENCODING 69
SWIDTH 500 0
DWIDTH 7 0
BBX 5 11 1 0
BITMAP
F8
80
80
80
80
F8
80
80
80
80
F8
ENDCHAR
STARTCHAR F
ENCODING 70
SWIDTH 428 0
DWIDTH 6 0
BBX 5 11 1 0
BITMAP
F8
80
80
80
80
F0
80
80
80
80
80
ENDCHAR
STARTCHAR G
ENCODING 71
SWIDTH 642 0
DWIDTH 9 0
BBX 7 11 1 0
BITMAP
38
44
82
82
80
80
8E
82
82
46
3A
ENDCHAR
STARTCHAR H
ENCODING 72
SWIDTH 571 0
DWIDTH 8 0
BBX 6 11 1 0
BITMAP
84
84
84
84
84
FC
84
84
84
84
84
ENDCHAR
STARTCHAR I
ENCODING 73
SWIDTH 214 0
DWIDTH 3 0
BBX 1 11 1 0
BITMAP
80
80
80
80
80
80
80
80
80
80
80
ENDCHAR
STARTCHAR J
ENCODING 74
SWIDTH 428 0
DWIDTH 6 0
BBX 5 11 0 0
BITMAP
08
08
08
08
08
08
08
08
88
88
70
ENDCHAR
STARTCHAR K
ENCODING 75
SWIDTH 571 0
DWIDTH 8 0
BBX 6 11 1 0
BITMAP
84
88
88
90
A0
E0
90
90
88
88
84
ENDCHAR
STARTCHAR L
ENCODING 76
SWIDTH 428 0
DWIDTH 6 0
BBX 5 11 1 0
BITMAP
80
80
80
80
80
80
80
80
80
80
F8
ENDCHAR
STARTCHAR M
ENCODING 77
SWIDTH 785 0
DWIDTH 11 0
BBX 9 11 1 0
BITMAP
8080
C180
C180
A280
A280
9480
9480
9480
8880
8880
8880
ENDCHAR
STARTCHAR N
ENCODING 78
SWIDTH 571 0
DWIDTH 8 0
BBX 6 11 1 0
BITMAP
84
C4
C4
A4
A4
94
94
94
8C
8C
84
ENDCHAR
STARTCHAR O
ENCODING 79
SWIDTH 714 0
DWIDTH 10 0
BBX 8 11 1 0
BITMAP
3C
42
81
81
81
81
81
81
81
42
3C
ENDCHAR
STARTCHAR P
ENCODING 80
SWIDTH 500 0
DWIDTH 7 0
BBX 6 11 1 0
BITMAP
F8
84
84
84
84
F8
80
80
80
80
80
ENDCHAR
STARTCHAR Q
ENCODING 81
SWIDTH 714 0
DWIDTH 10 0
BBX 8 12 1 -1
BITMAP
3C
42
81
81
81
81
81
81
89
46
3E
01
ENDCHAR
STARTCHAR R
ENCODING 82
SWIDTH 571 0
DWIDTH 8 0
BBX 6 11 1 0
BITMAP
F8
84
84
84
84
F8
84
84
84
84
84
ENDCHAR
STARTCHAR S
ENCODING 83
SWIDTH 571 0
DWIDTH 8 0
BBX 6 11 1 0
BITMAP
78
84
84
80
40
30
08
04
84
84
78
ENDCHAR
STARTCHAR T
ENCODING 84
SWIDTH 500 0
DWIDTH 7 0
BBX 7 11 0 0
BITMAP
FE
10
10
10
10
10
10
10
10
10
10
ENDCHAR
STARTCHAR U
ENCODING 85
SWIDTH 571 0
DWIDTH 8 0
BBX 6 11 1 0
BITMAP
84
84
84
84
84
84
84
84
84
84
78
ENDCHAR
STARTCHAR V
ENCODING 86
SWIDTH 500 0
DWIDTH 7 0
BBX 7 11 0 0
BITMAP
82
82
82
44
44
44
28
28
28
10
10
ENDCHAR
STARTCHAR W
ENCODING 87
SWIDTH 785 0
DWIDTH 11 0
BBX 11 11 0 0
BITMAP
8420
8420
8A20
8A20
8A20
5140
5140
5140
5140
2080
2080
ENDCHAR
STARTCHAR X
ENCODING 88
SWIDTH 500 0
DWIDTH 7 0
BBX 7 11 0 0
BITMAP
82
82
44
44
28
38
28
44
44
82
82
ENDCHAR
STARTCHAR Y
ENCODING 89
SWIDTH 500 0
DWIDTH 7 0
BBX 7 11 0 0
BITMAP
82
82
44
44
28
28
10
10
10
10
10
ENDCHAR
STARTCHAR Z
ENCODING 90
SWIDTH 500 0
DWIDTH 7 0
BBX 5 11 1 0
BITMAP
F8
08
10
10
20
20
20
40
40
80
F8
ENDCHAR
STARTCHAR bracketleft
ENCODING 91
SWIDTH 285 0
DWIDTH 4 0
BBX 2 14 1 -3
BITMAP
C0
80
80
80
80
80
80
80
80
80
80
80
80
C0
ENDCHAR
STARTCHAR backslash
ENCODING 92
SWIDTH 285 0
DWIDTH 4 0
BBX 4 12 0 -1
BITMAP
80
80
80
40
40
40
20
20
20
10
10
10
ENDCHAR
STARTCHAR bracketright
ENCODING 93
SWIDTH 285 0
DWIDTH 4 0
BBX 2 14 1 -3
BITMAP
C0
40
40
40
40
40
40
40
40
40
40
40
40
C0
ENDCHAR
STARTCHAR asciicircum
ENCODING 94
SWIDTH 428 0
DWIDTH 6 0
BBX 5 3 1 8
BITMAP
20
50
88
ENDCHAR
STARTCHAR underscore
ENCODING 95
SWIDTH 428 0
DWIDTH 6 0
BBX 6 1 0 -3
BITMAP
FC
ENDCHAR
STARTCHAR grave
ENCODING 96
SWIDTH 428 0
DWIDTH 6 0
BBX 3 3 1 9
BITMAP
80
40
20
ENDCHAR
STARTCHAR a
ENCODING 97
SWIDTH 428 0
DWIDTH 6 0
BBX 4 8 1 0
BITMAP
60
90
10
70
90
90
90
70
ENDCHAR
STARTCHAR b
ENCODING 98
SWIDTH 500 0
DWIDTH 7 0
BBX 5 11 1 0
BITMAP
80
80
80
B0
C8
88
88
88
88
C8
B0
ENDCHAR
STARTCHAR c
ENCODING 99
SWIDTH 428 0
DWIDTH 6 0
BBX 4 8 1 0
BITMAP
60
90
80
80
80
90
90
60
ENDCHAR
STARTCHAR d
ENCODING 100
SWIDTH 500 0
DWIDTH 7 0
BBX 5 11 1 0
BITMAP
08
08
08
68
98
88
88
88
88
98
68
ENDCHAR
STARTCHAR e
ENCODING 101
SWIDTH 428 0
DWIDTH 6 0
BBX 4 8 1 0
BITMAP
60
90
90
F0
80
80
90
60
ENDCHAR
STARTCHAR f
ENCODING 102
SWIDTH 214 0
DWIDTH 3 0
BBX 3 11 0 0
BITMAP
60
40
40
E0
40
40
40
40
40
40
40
ENDCHAR
STARTCHAR g
ENCODING 103
SWIDTH 500 0
DWIDTH 7 0
BBX 5 11 1 -3
BITMAP
68
98
88
88
88
88
98
68
08
88
70
ENDCHAR
STARTCHAR h
ENCODING 104
SWIDTH 500 0
DWIDTH 7 0
BBX 5 11 1 0
BITMAP
80
80
80
B0
C8
88
88
88
88
88
88
ENDCHAR
STARTCHAR i
ENCODING 105
SWIDTH 214 0
DWIDTH 3 0
BBX 1 11 1 0
BITMAP
80
80
00
80
80
80
80
80
80
80
80
ENDCHAR
STARTCHAR j
ENCODING 106
SWIDTH 214 0
DWIDTH 3 0
BBX 2 14 0 -3
BITMAP
40
40
00
40
40
40
40
40
40
40
40
40
40
80
ENDCHAR
STARTCHAR k
ENCODING 107
SWIDTH 428 0
DWIDTH 6 0
BBX 5 11 1 0
BITMAP
80
80
80
88
90
A0
E0
90
90
88
88
ENDCHAR
STARTCHAR l
ENCODING 108
SWIDTH 214 0
DWIDTH 3 0
BBX 1 11 1 0
BITMAP
80
80
80
80
80
80
80
80
80
80
80
ENDCHAR
STARTCHAR m
ENCODING 109
SWIDTH 642 0
DWIDTH 9 0
BBX 7 8 1 0
BITMAP
EC
92
92
92
92
92
92
92
ENDCHAR
STARTCHAR n
ENCODING 110
SWIDTH 500 0
DWIDTH 7 0
BBX 5 8 1 0
BITMAP
B0
C8
88
88
88
88
88
88
ENDCHAR
STARTCHAR o
ENCODING 111
SWIDTH 500 0
DWIDTH 7 0
BBX 5 8 1 0
BITMAP
70
88
88
88
88
88
88
70
ENDCHAR
STARTCHAR p
ENCODING 112
SWIDTH 500 0
DWIDTH 7 0
BBX 5 11 1 -3
BITMAP
B0
C8
88
88
88
88
C8
B0
80
80
80
ENDCHAR
STARTCHAR q
ENCODING 113
SWIDTH 500 0
DWIDTH 7 0
BBX 5 11 1 -3
BITMAP
68
98
88
88
88
88
98
68
08
08
08
ENDCHAR
STARTCHAR r
ENCODING 114
SWIDTH 357 0
DWIDTH 5 0
BBX 4 8 1 0
BITMAP
B0
C0
80
80
80
80
80
80
ENDCHAR
STARTCHAR s
ENCODING 115
SWIDTH 428 0
DWIDTH 6 0
BBX 4 8 1 0
BITMAP
60
90
80
60
10
10
90
60
ENDCHAR
STARTCHAR t
ENCODING 116
SWIDTH 285 0
DWIDTH 4 0
BBX 4 10 0 0
BITMAP
40
40
E0
40
40
40
40
40
40
30
ENDCHAR
STARTCHAR u
ENCODING 117
SWIDTH 500 0
DWIDTH 7 0
BBX 5 8 1 0
BITMAP
88
88
88
88
88
88
98
68
ENDCHAR
STARTCHAR v
ENCODING 118
SWIDTH 500 0
DWIDTH 7 0
BBX 5 8 1 0
BITMAP
88
88
88
50
50
50
20
20
ENDCHAR
STARTCHAR w
ENCODING 119
SWIDTH 642 0
DWIDTH 9 0
BBX 7 8 1 0
BITMAP
92
92
AA
AA
AA
44
44
44
ENDCHAR
STARTCHAR x
ENCODING 120
SWIDTH 500 0
DWIDTH 7 0
BBX 5 8 1 0
BITMAP
88
88
50
20
50
50
88
88
ENDCHAR
STARTCHAR y
ENCODING 121
SWIDTH 500 0
DWIDTH 7 0
BBX 5 11 1 -3
BITMAP
88
88
88
50
50
50
20
20
20
40
C0
ENDCHAR
STARTCHAR z
ENCODING 122
SWIDTH 428 0
DWIDTH 6 0
BBX 4 8 1 0
BITMAP
F0
10
20
20
40
40
80
F0
ENDCHAR
STARTCHAR braceleft
ENCODING 123
SWIDTH 285 0
DWIDTH 4 0
BBX 3 14 0 -3
BITMAP
20
40
40
40
40
40
80
40
40
40
40
40
40
20
ENDCHAR
STARTCHAR bar
ENCODING 124
SWIDTH 214 0
DWIDTH 3 0
BBX 1 14 1 -3
BITMAP
80
80
80
80
80
80
80
80
80
80
80
80
80
80
ENDCHAR
STARTCHAR braceright
ENCODING 125
SWIDTH 285 0
DWIDTH 4 0
BBX 3 14 1 -3
BITMAP
80
40
40
40
40
40
20
40
40
40
40
40
40
80
ENDCHAR
STARTCHAR asciitilde
ENCODING 126
SWIDTH 428 0
DWIDTH 6 0
BBX 5 3 1 8
BITMAP
48
A8
90
ENDCHAR
STARTCHAR not
ENCODING 127
SWIDTH 357 0
DWIDTH 5 0
BBX 4 2 1 3
BITMAP
F0
10
ENDCHAR
STARTCHAR afii10051
ENCODING 128
SWIDTH 428 0
DWIDTH 6 0
BBX 6 11 0 0
BITMAP
F0
40
40
58
64
44
44
44
54
54
48
ENDCHAR
STARTCHAR afii10052
ENCODING 129
SWIDTH 500 0
DWIDTH 7 0
BBX 5 13 1 0
BITMAP
10
20
F8
80
80
80
80
80
80
80
80
80
80
ENDCHAR
STARTCHAR cedilla
ENCODING 130
SWIDTH 285 0
DWIDTH 4 0
BBX 3 4 1 -2
BITMAP
80
C0
60
80
ENDCHAR
STARTCHAR afii10100
ENCODING 131
SWIDTH 428 0
DWIDTH 6 0
BBX 5 10 1 0
BITMAP
10
20
F8
80
80
80
80
80
80
80
ENDCHAR
STARTCHAR quotedblbase
ENCODING 132
SWIDTH 285 0
DWIDTH 4 0
BBX 4 4 0 -2
BITMAP
F0
F0
50
50
ENDCHAR
STARTCHAR ellipsis
ENCODING 133
SWIDTH 500 0
DWIDTH 7 0
BBX 5 1 1 0
BITMAP
A8
ENDCHAR
STARTCHAR dagger
ENCODING 134
SWIDTH 500 0
DWIDTH 7 0
BBX 5 11 1 0
BITMAP
20
20
20
F8
20
20
20
20
20
20
20
ENDCHAR
STARTCHAR section
ENCODING 135
SWIDTH 357 0
DWIDTH 5 0
BBX 4 10 1 0
BITMAP
60
90
80
60
90
90
60
10
90
60
ENDCHAR
STARTCHAR Euro
ENCODING 136
SWIDTH 571 0
DWIDTH 8 0
BBX 8 11 0 0
BITMAP
1C
22
41
41
F8
40
F8
41
41
22
1C
ENDCHAR
STARTCHAR dieresis
ENCODING 137
SWIDTH 357 0
DWIDTH 5 0
BBX 3 2 1 9
BITMAP
A0
A0
ENDCHAR
STARTCHAR afii10058
ENCODING 138
SWIDTH 642 0
DWIDTH 9 0
BBX 8 11 1 0
BITMAP
38
48
48
48
48
4E
49
49
49
49
CE
ENDCHAR
STARTCHAR guilsinglleft
ENCODING 139
SWIDTH 357 0
DWIDTH 5 0
BBX 4 7 1 0
BITMAP
10
20
40
C0
40
20
10
ENDCHAR
STARTCHAR afii10059
ENCODING 140
SWIDTH 642 0
DWIDTH 9 0
BBX 8 11 1 0
BITMAP
88
88
88
88
88
FE
89
89
89
89
8E
ENDCHAR
STARTCHAR afii10061
ENCODING 141
SWIDTH 500 0
DWIDTH 7 0
BBX 6 14 1 0
BITMAP
08
10
20
88
90
A0
A0
C0
E0
A0
90
98
88
84
ENDCHAR
STARTCHAR afii10060
ENCODING 142
SWIDTH 428 0
DWIDTH 6 0
BBX 6 11 0 0
BITMAP
F0
40
40
58
64
44
44
44
44
44
44
ENDCHAR
STARTCHAR afii10145
ENCODING 143
SWIDTH 500 0
DWIDTH 7 0
BBX 6 13 1 -2
BITMAP
84
84
84
84
84
84
84
84
84
84
FC
30
30
ENDCHAR
STARTCHAR afii10099
ENCODING 144
SWIDTH 428 0
DWIDTH 6 0
BBX 6 13 0 -2
BITMAP
40
F0
40
58
64
44
44
44
44
44
44
08
10
ENDCHAR
STARTCHAR quoteleft
ENCODING 145
SWIDTH 214 0
DWIDTH 3 0
BBX 2 4 1 7
BITMAP
80
80
C0
C0
ENDCHAR
STARTCHAR quoteright
ENCODING 146
SWIDTH 142 0
DWIDTH 2 0
BBX 2 4 0 7
BITMAP
C0
C0
40
40
ENDCHAR
STARTCHAR quotedblleft
ENCODING 147
SWIDTH 357 0
DWIDTH 5 0
BBX 4 4 1 7
BITMAP
A0
A0
F0
F0
ENDCHAR
STARTCHAR quotedblright
ENCODING 148
SWIDTH 285 0
DWIDTH 4 0
BBX 4 4 0 7
BITMAP
F0
F0
50
50
ENDCHAR
STARTCHAR bullet
ENCODING 149
SWIDTH 428 0
DWIDTH 6 0
BBX 5 7 1 1
BITMAP
20
70
F8
F8
F8
70
20
ENDCHAR
STARTCHAR endash
ENCODING 150
SWIDTH 500 0
DWIDTH 7 0
BBX 6 1 1 4
BITMAP
FC
ENDCHAR
STARTCHAR emdash
ENCODING 151
SWIDTH 642 0
DWIDTH 9 0
BBX 8 1 1 4
BITMAP
FF
ENDCHAR
STARTCHAR sterling
ENCODING 152
SWIDTH 642 0
DWIDTH 9 0
BBX 8 11 1 0
BITMAP
1C
22
22
22
20
20
78
20
20
71
8E
ENDCHAR
STARTCHAR periodcentered
ENCODING 153
SWIDTH 214 0
DWIDTH 3 0
BBX 1 2 1 4
BITMAP
80
80
ENDCHAR
STARTCHAR afii10106
ENCODING 154
SWIDTH 642 0
DWIDTH 9 0
BBX 8 8 1 0
BITMAP
38
48
48
4E
49
49
49
8E
ENDCHAR
STARTCHAR guilsinglright
ENCODING 155
SWIDTH 357 0
DWIDTH 5 0
BBX 4 7 1 0
BITMAP
80
40
20
30
20
40
80
ENDCHAR
STARTCHAR afii10107
ENCODING 156
SWIDTH 571 0
DWIDTH 8 0
BBX 7 8 1 0
BITMAP
90
90
90
FC
92
92
92
9C
ENDCHAR
STARTCHAR afii10109
ENCODING 157
SWIDTH 428 0
DWIDTH 6 0
BBX 5 11 1 0
BITMAP
08
10
20
88
90
A0
E0
90
90
88
88
ENDCHAR
STARTCHAR afii10108
ENCODING 158
SWIDTH 428 0
DWIDTH 6 0
BBX 6 11 0 0
BITMAP
40
F0
40
58
64
44
44
44
44
44
44
ENDCHAR
STARTCHAR afii10193
ENCODING 159
SWIDTH 428 0
DWIDTH 6 0
BBX 5 10 1 -2
BITMAP
88
88
88
88
88
88
88
F8
20
20
ENDCHAR
STARTCHAR space
ENCODING 160
SWIDTH 214 0
DWIDTH 3 0
BBX 0 0 0 0
BITMAP
ENDCHAR
STARTCHAR afii10196
ENCODING 161
SWIDTH 500 0
DWIDTH 7 0
BBX 6 8 1 0
BITMAP
80
8C
88
50
50
50
20
20
ENDCHAR
STARTCHAR afii10194
ENCODING 162
SWIDTH 500 0
DWIDTH 7 0
BBX 7 10 0 0
BITMAP
20
20
F8
20
20
3C
22
22
22
3C
ENDCHAR
STARTCHAR afii10071
ENCODING 163
SWIDTH 428 0
DWIDTH 6 0
BBX 4 10 1 0
BITMAP
90
00
60
90
90
F0
80
80
90
60
ENDCHAR
STARTCHAR afii10101
ENCODING 164
SWIDTH 500 0
DWIDTH 7 0
BBX 5 8 1 0
BITMAP
70
88
88
E0
80
88
88
70
ENDCHAR
STARTCHAR afii10102
ENCODING 165
SWIDTH 428 0
DWIDTH 6 0
BBX 4 8 1 0
BITMAP
60
90
80
60
10
10
90
60
ENDCHAR
STARTCHAR afii10103
ENCODING 166
SWIDTH 214 0
DWIDTH 3 0
BBX 1 11 1 0
BITMAP
80
80
00
80
80
80
80
80
80
80
80
ENDCHAR
STARTCHAR afii10104
ENCODING 167
SWIDTH 214 0
DWIDTH 3 0
BBX 3 11 0 0
BITMAP
A0
A0
00
40
40
40
40
40
40
40
40
ENDCHAR
STARTCHAR afii10105
ENCODING 168
SWIDTH 214 0
DWIDTH 3 0
BBX 2 14 0 -3
BITMAP
40
40
00
40
40
40
40
40
40
40
40
40
40
80
ENDCHAR
STARTCHAR registered
ENCODING 169
SWIDTH 642 0
DWIDTH 9 0
BBX 8 9 1 2
BITMAP
3C
42
B9
A5
B9
A5
A5
42
3C
ENDCHAR
STARTCHAR trademark
ENCODING 170
SWIDTH 785 0
DWIDTH 11 0
BBX 10 5 1 7
BITMAP
FC40
26C0
2540
2440
2440
ENDCHAR
STARTCHAR guillemotleft
ENCODING 171
SWIDTH 500 0
DWIDTH 7 0
BBX 7 7 0 1
BITMAP
12
24
48
90
48
24
12
ENDCHAR
STARTCHAR afii10195
ENCODING 172
SWIDTH 500 0
DWIDTH 7 0
BBX 5 8 1 0
BITMAP
70
88
88
F8
88
88
88
70
ENDCHAR
STARTCHAR afii10098
ENCODING 173
SWIDTH 428 0
DWIDTH 6 0
BBX 5 9 1 0
BITMAP
08
F8
80
80
80
80
80
80
80
ENDCHAR
STARTCHAR afii10110
ENCODING 174
SWIDTH 500 0
DWIDTH 7 0
BBX 5 13 1 -3
BITMAP
50
20
88
88
88
50
50
50
20
20
20
40
80
ENDCHAR
STARTCHAR acute
ENCODING 175
SWIDTH 285 0
DWIDTH 4 0
BBX 3 3 1 8
BITMAP
20
40
80
ENDCHAR
STARTCHAR degree
ENCODING 176
SWIDTH 285 0
DWIDTH 4 0
BBX 4 4 0 7
BITMAP
60
90
90
60
ENDCHAR
STARTCHAR afii10148
ENCODING 177
SWIDTH 642 0
DWIDTH 9 0
BBX 9 11 0 0
BITMAP
8000
8380
8200
4400
4400
4400
2800
2800
2800
1000
1000
ENDCHAR
STARTCHAR afii10146
ENCODING 178
SWIDTH 571 0
DWIDTH 8 0
BBX 8 13 0 0
BITMAP
20
20
F8
20
20
20
3E
21
21
21
21
21
3E
ENDCHAR
STARTCHAR afii10023
ENCODING 179
SWIDTH 500 0
DWIDTH 7 0
BBX 6 13 1 0
BITMAP
48
00
FC
80
80
80
80
FC
80
80
80
80
FC
ENDCHAR
STARTCHAR afii10053
ENCODING 180
SWIDTH 571 0
DWIDTH 8 0
BBX 7 11 0 0
BITMAP
38
44
82
80
80
F8
80
80
82
44
38
ENDCHAR
STARTCHAR afii10054
ENCODING 181
SWIDTH 571 0
DWIDTH 8 0
BBX 6 11 1 0
BITMAP
78
84
84
80
40
30
08
04
84
84
78
ENDCHAR
STARTCHAR afii10055
ENCODING 182
SWIDTH 214 0
DWIDTH 3 0
BBX 1 11 1 0
BITMAP
80
80
80
80
80
80
80
80
80
80
80
ENDCHAR
STARTCHAR afii10056
ENCODING 183
SWIDTH 214 0
DWIDTH 3 0
BBX 3 14 0 0
BITMAP
A0
A0
00
40
40
40
40
40
40
40
40
40
40
40
ENDCHAR
STARTCHAR afii10057
ENCODING 184
SWIDTH 428 0
DWIDTH 6 0
BBX 5 11 0 0
BITMAP
08
08
08
08
08
08
08
08
88
88
70
ENDCHAR
STARTCHAR afii61352
ENCODING 185
SWIDTH 642 0
DWIDTH 9 0
BBX 8 11 1 0
BITMAP
87
C5
C7
A4
A7
94
94
94
8C
8C
84
ENDCHAR
STARTCHAR cent
ENCODING 186
SWIDTH 428 0
DWIDTH 6 0
BBX 5 10 1 -1
BITMAP
20
70
A8
A0
A0
A0
A8
A8
70
20
ENDCHAR
STARTCHAR guillemotright
ENCODING 187
SWIDTH 571 0
DWIDTH 8 0
BBX 7 7 1 1
BITMAP
90
48
24
12
24
48
90
ENDCHAR
STARTCHAR afii10147
ENCODING 188
SWIDTH 714 0
DWIDTH 10 0
BBX 8 11 1 0
BITMAP
3C
42
81
81
81
FF
81
81
81
42
3C
ENDCHAR
STARTCHAR afii10050
ENCODING 189
SWIDTH 500 0
DWIDTH 7 0
BBX 5 12 1 0
BITMAP
08
F8
80
80
80
80
80
80
80
80
80
80
ENDCHAR
STARTCHAR afii10062
ENCODING 190
SWIDTH 500 0
DWIDTH 7 0
BBX 7 13 0 0
BITMAP
28
38
82
82
44
44
28
28
10
10
10
20
C0
ENDCHAR
STARTCHAR copyright
ENCODING 191
SWIDTH 642 0
DWIDTH 9 0
BBX 8 9 1 2
BITMAP
3C
42
99
A5
A1
A5
99
42
3C
ENDCHAR
STARTCHAR afii10096
ENCODING 192
SWIDTH 642 0
DWIDTH 9 0
BBX 7 8 1 0
BITMAP
9C
A2
A2
E2
A2
A2
A2
9C
ENDCHAR
STARTCHAR afii10065
ENCODING 193
SWIDTH 428 0
DWIDTH 6 0
BBX 4 8 1 0
BITMAP
60
90
10
70
90
90
90
70
ENDCHAR
STARTCHAR afii10066
ENCODING 194
SWIDTH 500 0
DWIDTH 7 0
BBX 5 11 1 0
BITMAP
18
60
80
B0
C8
88
88
88
88
88
70
ENDCHAR
STARTCHAR afii10088
ENCODING 195
SWIDTH 500 0
DWIDTH 7 0
BBX 6 9 1 -1
BITMAP
88
88
88
88
88
88
88
FC
04
ENDCHAR
STARTCHAR afii10069
ENCODING 196
SWIDTH 642 0
DWIDTH 9 0
BBX 7 9 1 -1
BITMAP
3C
24
24
24
24
24
44
FE
82
ENDCHAR
STARTCHAR afii10070
ENCODING 197
SWIDTH 428 0
DWIDTH 6 0
BBX 4 8 1 0
BITMAP
60
90
90
F0
80
80
90
60
ENDCHAR
STARTCHAR afii10086
ENCODING 198
SWIDTH 642 0
DWIDTH 9 0
BBX 7 14 1 -3
BITMAP
10
10
10
7C
92
92
92
92
92
92
7C
10
10
10
ENDCHAR
STARTCHAR afii10068
ENCODING 199
SWIDTH 428 0
DWIDTH 6 0
BBX 5 8 1 0
BITMAP
F8
80
80
80
80
80
80
80
ENDCHAR
STARTCHAR afii10087
ENCODING 200
SWIDTH 500 0
DWIDTH 7 0
BBX 5 8 1 0
BITMAP
88
88
50
20
50
50
88
88
ENDCHAR
STARTCHAR afii10074
ENCODING 201
SWIDTH 500 0
DWIDTH 7 0
BBX 5 8 1 0
BITMAP
88
88
98
A8
A8
C8
88
88
ENDCHAR
STARTCHAR afii10075
ENCODING 202
SWIDTH 500 0
DWIDTH 7 0
BBX 5 10 1 0
BITMAP
50
20
88
88
98
A8
A8
C8
88
88
ENDCHAR
STARTCHAR afii10076
ENCODING 203
SWIDTH 428 0
DWIDTH 6 0
BBX 5 8 1 0
BITMAP
88
90
A0
E0
90
90
88
88
ENDCHAR
STARTCHAR afii10077
ENCODING 204
SWIDTH 500 0
DWIDTH 7 0
BBX 5 8 1 0
BITMAP
38
48
48
48
48
48
48
88
ENDCHAR
STARTCHAR afii10078
ENCODING 205
SWIDTH 642 0
DWIDTH 9 0
BBX 7 8 1 0
BITMAP
82
C6
AA
AA
92
82
82
82
ENDCHAR
STARTCHAR afii10079
ENCODING 206
SWIDTH 500 0
DWIDTH 7 0
BBX 5 8 1 0
BITMAP
88
88
88
F8
88
88
88
88
ENDCHAR
STARTCHAR afii10080
ENCODING 207
SWIDTH 500 0
DWIDTH 7 0
BBX 5 8 1 0
BITMAP
70
88
88
88
88
88
88
70
ENDCHAR
STARTCHAR afii10081
ENCODING 208
SWIDTH 500 0
DWIDTH 7 0
BBX 5 8 1 0
BITMAP
F8
88
88
88
88
88
88
88
ENDCHAR
STARTCHAR afii10097
ENCODING 209
SWIDTH 500 0
DWIDTH 7 0
BBX 5 8 1 0
BITMAP
78
88
88
88
78
28
48
88
ENDCHAR
STARTCHAR afii10082
ENCODING 210
SWIDTH 500 0
DWIDTH 7 0
BBX 5 11 1 -3
BITMAP
B0
C8
88
88
88
88
C8
B0
80
80
80
ENDCHAR
STARTCHAR afii10083
ENCODING 211
SWIDTH 428 0
DWIDTH 6 0
BBX 4 8 1 0
BITMAP
60
90
80
80
80
90
90
60
ENDCHAR
STARTCHAR afii10084
ENCODING 212
SWIDTH 500 0
DWIDTH 7 0
BBX 5 8 1 0
BITMAP
F8
20
20
20
20
20
20
20
ENDCHAR
STARTCHAR afii10085
ENCODING 213
SWIDTH 500 0
DWIDTH 7 0
BBX 5 11 1 -3
BITMAP
88
88
88
50
50
50
20
20
20
40
80
ENDCHAR
STARTCHAR afii10072
ENCODING 214
SWIDTH 642 0
DWIDTH 9 0
BBX 9 8 0 0
BITMAP
8880
4900
2A00
3E00
2A00
4900
4900
8880
ENDCHAR
STARTCHAR afii10067
ENCODING 215
SWIDTH 428 0
DWIDTH 6 0
BBX 4 8 1 0
BITMAP
E0
90
90
E0
90
90
90
E0
ENDCHAR
STARTCHAR afii10094
ENCODING 216
SWIDTH 500 0
DWIDTH 7 0
BBX 5 8 1 0
BITMAP
80
80
80
F0
88
88
88
F0
ENDCHAR
STARTCHAR afii10093
ENCODING 217
SWIDTH 642 0
DWIDTH 9 0
BBX 7 8 1 0
BITMAP
82
82
82
F2
8A
8A
8A
F2
ENDCHAR
STARTCHAR afii10073
ENCODING 218
SWIDTH 500 0
DWIDTH 7 0
BBX 5 8 1 0
BITMAP
70
88
08
30
08
08
88
70
ENDCHAR
STARTCHAR afii10090
ENCODING 219
SWIDTH 642 0
DWIDTH 9 0
BBX 7 8 1 0
BITMAP
92
92
92
92
92
92
92
FE
ENDCHAR
STARTCHAR afii10095
ENCODING 220
SWIDTH 500 0
DWIDTH 7 0
BBX 5 8 1 0
BITMAP
70
88
88
38
08
88
88
70
ENDCHAR
STARTCHAR afii10091
ENCODING 221
SWIDTH 714 0
DWIDTH 10 0
BBX 9 9 1 -1
BITMAP
9200
9200
9200
9200
9200
9200
9200
FF80
0080
ENDCHAR
STARTCHAR afii10089
ENCODING 222
SWIDTH 500 0
DWIDTH 7 0
BBX 5 8 1 0
BITMAP
88
88
88
88
F8
08
08
08
ENDCHAR
STARTCHAR afii10092
ENCODING 223
SWIDTH 571 0
DWIDTH 8 0
BBX 6 8 1 0
BITMAP
C0
40
40
78
44
44
44
78
ENDCHAR
STARTCHAR afii10048
ENCODING 224
SWIDTH 857 0
DWIDTH 12 0
BBX 10 11 1 0
BITMAP
8F00
9080
9080
A040
A040
E040
A040
A040
9080
9080
8F00
ENDCHAR
STARTCHAR afii10017
ENCODING 225
SWIDTH 500 0
DWIDTH 7 0
BBX 7 11 0 0
BITMAP
10
10
28
28
44
44
7C
44
82
82
82
ENDCHAR
STARTCHAR afii10018
ENCODING 226
SWIDTH 571 0
DWIDTH 8 0
BBX 6 11 1 0
BITMAP
F8
80
80
80
80
F8
84
84
84
84
F8
ENDCHAR
STARTCHAR afii10040
ENCODING 227
SWIDTH 571 0
DWIDTH 8 0
BBX 7 12 1 -1
BITMAP
84
84
84
84
84
84
84
84
84
84
FE
02
ENDCHAR
STARTCHAR afii10021
ENCODING 228
SWIDTH 642 0
DWIDTH 9 0
BBX 8 13 1 -2
BITMAP
3E
22
22
22
22
22
22
22
22
42
FF
81
81
ENDCHAR
STARTCHAR afii10022
ENCODING 229
SWIDTH 500 0
DWIDTH 7 0
BBX 6 11 1 0
BITMAP
FC
80
80
80
80
FC
80
80
80
80
FC
ENDCHAR
STARTCHAR afii10038
ENCODING 230
SWIDTH 785 0
DWIDTH 11 0
BBX 9 11 1 0
BITMAP
0800
0800
3E00
4900
8880
8880
8880
4900
3E00
0800
0800
ENDCHAR
STARTCHAR afii10020
ENCODING 231
SWIDTH 500 0
DWIDTH 7 0
BBX 5 11 1 0
BITMAP
F8
80
80
80
80
80
80
80
80
80
80
ENDCHAR
STARTCHAR afii10039
ENCODING 232
SWIDTH 500 0
DWIDTH 7 0
BBX 7 11 0 0
BITMAP
82
82
44
44
28
38
28
44
44
82
82
ENDCHAR
STARTCHAR afii10026
ENCODING 233
SWIDTH 642 0
DWIDTH 9 0
BBX 7 11 1 0
BITMAP
82
82
86
8A
8A
92
92
A2
A2
C2
82
ENDCHAR
STARTCHAR afii10027
ENCODING 234
SWIDTH 642 0
DWIDTH 9 0
BBX 7 14 1 0
BITMAP
28
28
10
82
82
86
8A
8A
92
92
A2
A2
C2
82
ENDCHAR
STARTCHAR afii10028
ENCODING 235
SWIDTH 500 0
DWIDTH 7 0
BBX 6 11 1 0
BITMAP
88
90
A0
A0
C0
E0
A0
90
98
88
84
ENDCHAR
STARTCHAR afii10029
ENCODING 236
SWIDTH 571 0
DWIDTH 8 0
BBX 6 11 1 0
BITMAP
3C
44
44
44
44
44
44
44
44
44
C4
ENDCHAR
STARTCHAR afii10030
ENCODING 237
SWIDTH 785 0
DWIDTH 11 0
BBX 9 11 1 0
BITMAP
8080
C180
C180
A280
A280
9480
9480
9480
8880
8080
8080
ENDCHAR
STARTCHAR afii10031
ENCODING 238
SWIDTH 571 0
DWIDTH 8 0
BBX 6 11 1 0
BITMAP
84
84
84
84
84
FC
84
84
84
84
84
ENDCHAR
STARTCHAR afii10032
ENCODING 239
SWIDTH 714 0
DWIDTH 10 0
BBX 8 11 1 0
BITMAP
3C
42
81
81
81
81
81
81
81
42
3C
ENDCHAR
STARTCHAR afii10033
ENCODING 240
SWIDTH 571 0
DWIDTH 8 0
BBX 6 11 1 0
BITMAP
FC
84
84
84
84
84
84
84
84
84
84
ENDCHAR
STARTCHAR afii10049
ENCODING 241
SWIDTH 571 0
DWIDTH 8 0
BBX 6 11 1 0
BITMAP
7C
84
84
84
84
7C
24
24
44
44
84
ENDCHAR
STARTCHAR afii10034
ENCODING 242
SWIDTH 500 0
DWIDTH 7 0
BBX 6 11 1 0
BITMAP
F8
84
84
84
84
F8
80
80
80
80
80
ENDCHAR
STARTCHAR afii10035
ENCODING 243
SWIDTH 642 0
DWIDTH 9 0
BBX 7 11 1 0
BITMAP
38
44
82
82
80
80
80
82
82
44
38
ENDCHAR
STARTCHAR afii10036
ENCODING 244
SWIDTH 500 0
DWIDTH 7 0
BBX 7 11 0 0
BITMAP
FE
10
10
10
10
10
10
10
10
10
10
ENDCHAR
STARTCHAR afii10037
ENCODING 245
SWIDTH 500 0
DWIDTH 7 0
BBX 7 11 0 0
BITMAP
82
82
44
44
28
28
10
10
10
20
C0
ENDCHAR
STARTCHAR afii10024
ENCODING 246
SWIDTH 785 0
DWIDTH 11 0
BBX 11 11 0 0
BITMAP
4440
2480
3580
1500
0E00
1F00
3580
2480
4440
C460
8420
ENDCHAR
STARTCHAR afii10019
ENCODING 247
SWIDTH 571 0
DWIDTH 8 0
BBX 6 11 1 0
BITMAP
F8
84
84
84
84
F8
84
84
84
84
F8
ENDCHAR
STARTCHAR afii10046
ENCODING 248
SWIDTH 500 0
DWIDTH 7 0
BBX 6 11 1 0
BITMAP
80
80
80
80
F8
84
84
84
84
84
F8
ENDCHAR
STARTCHAR afii10045
ENCODING 249
SWIDTH 714 0
DWIDTH 10 0
BBX 8 11 1 0
BITMAP
81
81
81
81
F9
85
85
85
85
85
F9
ENDCHAR
STARTCHAR afii10025
ENCODING 250
SWIDTH 500 0
DWIDTH 7 0
BBX 5 11 1 0
BITMAP
70
88
88
08
08
30
08
08
88
88
70
ENDCHAR
STARTCHAR afii10042
ENCODING 251
SWIDTH 785 0
DWIDTH 11 0
BBX 9 11 1 0
BITMAP
8880
8880
8880
8880
8880
8880
8880
8880
8880
8880
FF80
ENDCHAR
STARTCHAR afii10047
ENCODING 252
SWIDTH 571 0
DWIDTH 8 0
BBX 7 11 0 0
BITMAP
38
44
82
02
02
3E
02
02
82
44
38
ENDCHAR
STARTCHAR afii10043
ENCODING 253
SWIDTH 857 0
DWIDTH 12 0
BBX 11 12 1 -1
BITMAP
8880
8880
8880
8880
8880
8880
8880
8880
8880
8880
FFE0
0020
ENDCHAR
STARTCHAR afii10041
ENCODING 254
SWIDTH 571 0
DWIDTH 8 0
BBX 6 11 1 0
BITMAP
84
84
84
84
84
7C
04
04
04
04
04
ENDCHAR
STARTCHAR afii10044
ENCODING 255
SWIDTH 571 0
DWIDTH 8 0
BBX 7 11 1 0
BITMAP
C0
40
40
40
7C
42
42
42
42
42
7C
ENDCHAR
ENDFONT
